<svg width="34" height="33" viewBox="0 0 34 33" fill="none" xmlns="http://www.w3.org/2000/svg">
<rect width="34" height="33" rx="7" fill="#979797"/>
<path d="M18 8L18.7071 7.29289C18.5196 7.10536 18.2652 7 18 7V8ZM24 14H25C25 13.7348 24.8946 13.4804 24.7071 13.2929L24 14ZM15 18C15 17.4477 14.5523 17 14 17C13.4477 17 13 17.4477 13 18H15ZM13 21C13 21.5523 13.4477 22 14 22C14.5523 22 15 21.5523 15 21H13ZM13.5 14C12.9477 14 12.5 14.4477 12.5 15C12.5 15.5523 12.9477 16 13.5 16V14ZM14.5 16C15.0523 16 15.5 15.5523 15.5 15C15.5 14.4477 15.0523 14 14.5 14V16ZM13.5 11C12.9477 11 12.5 11.4477 12.5 12C12.5 12.5523 12.9477 13 13.5 13V11ZM14.5 13C15.0523 13 15.5 12.5523 15.5 12C15.5 11.4477 15.0523 11 14.5 11V13ZM17 8V12.4H19V8H17ZM19.6 15H24V13H19.6V15ZM17 12.4C17 12.6635 16.9992 12.9213 17.0169 13.1382C17.0356 13.3668 17.0797 13.6366 17.218 13.908L19 13C19.0293 13.0575 19.0189 13.0803 19.0103 12.9754C19.0008 12.8588 19 12.6965 19 12.4H17ZM19.6 13C19.3035 13 19.1412 12.9992 19.0246 12.9897C18.9197 12.9811 18.9425 12.9707 19 13L18.092 14.782C18.3634 14.9203 18.6332 14.9644 18.8618 14.9831C19.0787 15.0008 19.3365 15 19.6 15V13ZM17.218 13.908C17.4097 14.2843 17.7157 14.5903 18.092 14.782L19 13L17.218 13.908ZM13 18V21H15V18H13ZM13.5 16H14.5V14H13.5V16ZM13.5 13H14.5V11H13.5V13ZM18 7H13.2V9H18V7ZM9 11.2V22.8H11V11.2H9ZM13.2 27H20.8V25H13.2V27ZM25 22.8V14H23V22.8H25ZM24.7071 13.2929L18.7071 7.29289L17.2929 8.70711L23.2929 14.7071L24.7071 13.2929ZM20.8 27C21.3436 27 21.8114 27.0008 22.195 26.9694C22.5904 26.9371 22.9836 26.8658 23.362 26.673L22.454 24.891C22.4045 24.9162 22.3038 24.9539 22.0322 24.9761C21.7488 24.9992 21.3766 25 20.8 25V27ZM23 22.8C23 23.3766 22.9992 23.7488 22.9761 24.0322C22.9539 24.3038 22.9162 24.4045 22.891 24.454L24.673 25.362C24.8658 24.9836 24.9371 24.5904 24.9694 24.195C25.0008 23.8114 25 23.3436 25 22.8H23ZM23.362 26.673C23.9265 26.3854 24.3854 25.9265 24.673 25.362L22.891 24.454C22.7951 24.6422 22.6422 24.7951 22.454 24.891L23.362 26.673ZM9 22.8C9 23.3436 8.99922 23.8114 9.03057 24.195C9.06287 24.5904 9.13419 24.9836 9.32698 25.362L11.109 24.454C11.0838 24.4045 11.0461 24.3038 11.0239 24.0322C11.0008 23.7488 11 23.3766 11 22.8H9ZM13.2 25C12.6235 25 12.2512 24.9992 11.9678 24.9761C11.6962 24.9539 11.5955 24.9162 11.546 24.891L10.638 26.673C11.0164 26.8658 11.4096 26.9371 11.805 26.9694C12.1886 27.0008 12.6565 27 13.2 27V25ZM9.32698 25.362C9.6146 25.9265 10.0735 26.3854 10.638 26.673L11.546 24.891C11.3579 24.7951 11.2049 24.6422 11.109 24.454L9.32698 25.362ZM13.2 7C12.6565 7 12.1886 6.99922 11.805 7.03057C11.4096 7.06287 11.0164 7.13419 10.638 7.32698L11.546 9.10899C11.5955 9.0838 11.6962 9.04612 11.9678 9.02393C12.2512 9.00078 12.6235 9 13.2 9V7ZM11 11.2C11 10.6235 11.0008 10.2512 11.0239 9.96784C11.0461 9.69617 11.0838 9.59545 11.109 9.54601L9.32698 8.63803C9.13419 9.01641 9.06287 9.40963 9.03057 9.80497C8.99922 10.1886 9 10.6565 9 11.2H11ZM10.638 7.32698C10.0735 7.6146 9.6146 8.07354 9.32698 8.63803L11.109 9.54601C11.2049 9.35785 11.3579 9.20487 11.546 9.10899L10.638 7.32698Z" fill="white"/>
</svg>
