<svg width="34" height="34" viewBox="0 0 34 34" fill="none" xmlns="http://www.w3.org/2000/svg">
<rect width="34" height="34" rx="10" fill="#34C0FD"/>
<path d="M12.9988 15.8401C14.7514 15.8401 16.1721 14.4194 16.1721 12.6668C16.1721 10.9142 14.7514 9.49347 12.9988 9.49347C11.2462 9.49347 9.82544 10.9142 9.82544 12.6668C9.82544 14.4194 11.2462 15.8401 12.9988 15.8401Z" fill="white"/>
<path d="M30.334 20.5335V23.5868C30.334 28.4402 27.4407 31.3335 22.5873 31.3335H11.4141C8.01406 31.3335 5.56073 29.9068 4.41406 27.3735L4.56073 27.2668L11.1207 22.8668C12.1874 22.1468 13.6941 22.2268 14.6407 23.0535L15.094 23.4268C16.134 24.3202 17.814 24.3202 18.854 23.4268L24.4007 18.6668C25.4407 17.7735 27.1207 17.7735 28.1607 18.6668L30.334 20.5335Z" fill="white"/>
</svg>
