<svg width="34" height="33" viewBox="0 0 34 33" fill="none" xmlns="http://www.w3.org/2000/svg">
<rect width="34" height="33" rx="7" fill="#EA5758"/>
<path d="M24.8953 6.87459C20.5387 6.96072 15.4915 7.71553 11.134 9.13984C11.1316 9.11141 11.1503 22.0813 11.1503 22.0813C10.3638 21.9034 9.47489 22.0066 8.54133 22.4323C6.80908 23.2197 5.86414 24.8113 6.43127 25.987C6.99839 27.1643 8.86227 27.4804 10.5945 26.6915C12.1781 25.8424 12.6875 25.0746 12.7395 23.9639L12.7785 12.7254C16.2121 11.7155 19.8432 11.1167 23.2785 10.9314V20.9788C22.483 20.7838 21.4292 20.8821 20.4745 21.3152C18.7423 22.1041 17.7973 23.6958 18.3645 24.8715C18.9316 26.0488 20.7955 26.3632 22.5285 25.5759C23.7603 25.0161 24.7458 24.0492 24.9197 23.1148C24.9205 23.114 24.8783 6.85266 24.8953 6.87459Z" fill="white"/>
</svg>
