<svg width="18" height="18" viewBox="0 0 18 18" fill="none" xmlns="http://www.w3.org/2000/svg">
<path fill-rule="evenodd" clip-rule="evenodd" d="M18 4.505C18 4.90282 17.842 5.28436 17.5607 5.56566C17.2794 5.84697 16.8978 6.005 16.5 6.005H13.5C13.1022 6.005 12.7206 5.84697 12.4393 5.56566C12.158 5.28436 12 4.90282 12 4.505V1.5C12 1.10218 12.158 0.720644 12.4393 0.43934C12.7206 0.158035 13.1022 0 13.5 0H16.5C16.8978 0 17.2794 0.158035 17.5607 0.43934C17.842 0.720644 18 1.10218 18 1.5V4.505ZM6 4.5V1.504C6 1.10652 5.84224 0.725293 5.56137 0.444046C5.2805 0.162799 4.89948 0.00452992 4.502 0.00399995L1.502 0.000999928C1.30493 0.000737128 1.10975 0.0393087 0.927592 0.114511C0.745437 0.189712 0.579887 0.30007 0.4404 0.439279C0.300914 0.578487 0.190225 0.743816 0.114659 0.92582C0.0390929 1.10782 0.000131203 1.30293 0 1.5V4.5C0 4.89782 0.158035 5.27936 0.43934 5.56066C0.720644 5.84196 1.10218 6 1.5 6H4.5C4.89782 6 5.27936 5.84196 5.56066 5.56066C5.84196 5.27936 6 4.89782 6 4.5ZM2 4V2.001L4 2.003V4H2ZM1.498 12.004L4.498 12.001C4.69507 12.0007 4.89025 12.0393 5.07241 12.1145C5.25456 12.1897 5.42011 12.3001 5.5596 12.4393C5.69909 12.5785 5.80977 12.7438 5.88534 12.9258C5.96091 13.1078 5.99987 13.3029 6 13.5V16.5C6 16.8978 5.84196 17.2794 5.56066 17.5607C5.27936 17.842 4.89782 18 4.5 18H1.5C1.10218 18 0.720644 17.842 0.43934 17.5607C0.158035 17.2794 0 16.8978 0 16.5V13.504C-3.53314e-07 13.1065 0.15776 12.7253 0.438632 12.444C0.719505 12.1628 1.10052 12.0045 1.498 12.004ZM4 16H2V14.003L4 14.001V16ZM16 2V4.005H14V2H16ZM16 13C16 12.7348 16.1054 12.4804 16.2929 12.2929C16.4804 12.1054 16.7348 12 17 12C17.2652 12 17.5196 12.1054 17.7071 12.2929C17.8946 12.4804 18 12.7348 18 13V16.5C18 16.8975 17.8422 17.2787 17.5614 17.56C17.2805 17.8412 16.8995 17.9995 16.502 18L13.002 18.005C12.8707 18.0052 12.7406 17.9795 12.6192 17.9295C12.4978 17.8794 12.3875 17.8059 12.2945 17.7132C12.2015 17.6204 12.1276 17.5103 12.0772 17.3891C12.0268 17.2678 12.0007 17.1378 12.0005 17.0065C12.0003 16.8752 12.026 16.7451 12.076 16.6237C12.1261 16.5023 12.1996 16.392 12.2923 16.299C12.3851 16.206 12.4952 16.1321 12.6164 16.0817C12.7377 16.0313 12.8677 16.0052 12.999 16.005L16 16V13ZM8 1V8H1C0.734784 8 0.48043 8.10536 0.292893 8.29289C0.105357 8.48043 0 8.73478 0 9C0 9.26522 0.105357 9.51957 0.292893 9.70711C0.48043 9.89464 0.734784 10 1 10H9C9.26522 10 9.51957 9.89464 9.70711 9.70711C9.89464 9.51957 10 9.26522 10 9V1C10 0.734784 9.89464 0.48043 9.70711 0.292893C9.51957 0.105357 9.26522 0 9 0C8.73478 0 8.48043 0.105357 8.29289 0.292893C8.10536 0.48043 8 0.734784 8 1ZM10 17C10 17.2652 9.89464 17.5196 9.70711 17.7071C9.51957 17.8946 9.26522 18 9 18C8.73478 18 8.48043 17.8946 8.29289 17.7071C8.10536 17.5196 8 17.2652 8 17V13C8 12.7348 8.10536 12.4804 8.29289 12.2929C8.48043 12.1054 8.73478 12 9 12C9.26522 12 9.51957 12.1054 9.70711 12.2929C9.89464 12.4804 10 12.7348 10 13V17ZM13 14C13.2652 14 13.5196 13.8946 13.7071 13.7071C13.8946 13.5196 14 13.2652 14 13V10H17C17.2652 10 17.5196 9.89464 17.7071 9.70711C17.8946 9.51957 18 9.26522 18 9C18 8.73478 17.8946 8.48043 17.7071 8.29289C17.5196 8.10536 17.2652 8 17 8H13C12.7348 8 12.4804 8.10536 12.2929 8.29289C12.1054 8.48043 12 8.73478 12 9V13C12 13.2652 12.1054 13.5196 12.2929 13.7071C12.4804 13.8946 12.7348 14 13 14Z" fill="#5C76E7"/>
</svg>
