<svg width="20" height="20" viewBox="0 0 20 20" fill="none" xmlns="http://www.w3.org/2000/svg">
<path d="M5.89095 9.73694C6.31402 10.1601 6.31402 10.8459 5.89095 11.2691L3.91015 13.2499H14.3332C14.9315 13.2499 15.4165 13.7349 15.4165 14.3332C15.4165 14.9315 14.9315 15.4165 14.3332 15.4165H3.91015L5.89095 17.3973C6.31402 17.8203 6.31402 18.5063 5.89095 18.9293C5.46789 19.3525 4.78195 19.3525 4.35889 18.9293L0.528723 15.0992C0.10566 14.6762 0.10566 13.9902 0.528723 13.5672L4.35889 9.73694C4.78195 9.3139 5.46789 9.3139 5.89095 9.73694ZM14.1088 1.07033C14.4994 0.679797 15.1138 0.649756 15.5387 0.980204L15.6408 1.07033L19.471 4.90048C19.8615 5.29101 19.8916 5.90551 19.5611 6.3305L19.471 6.43256L15.6408 10.2627C15.2178 10.6858 14.5319 10.6858 14.1088 10.2627C13.7183 9.87218 13.6882 9.25765 14.0186 8.83268L14.1088 8.73063L16.0896 6.74985H5.66644C5.06814 6.74985 4.58311 6.26482 4.58311 5.66652C4.58311 5.11094 5.00132 4.65305 5.5401 4.59047L5.66644 4.58319H16.0896L14.1088 2.60239C13.6857 2.17932 13.6857 1.49339 14.1088 1.07033Z" fill="#525252"/>
</svg>
